<svg xml:space="preserve" viewBox="0 0 100 100" y="0" x="0" xmlns="http://www.w3.org/2000/svg" id="圖層_1" version="1.1" preserveAspectRatio="xMidYMid" width="200" height="200" xmlns:xlink="http://www.w3.org/1999/xlink" style="margin-top:0px;margin-right:0px;margin-bottom:0px;margin-left:0px;display:block;shape-rendering:auto;background-position-x:0%;background-position-y:0%;background-size:auto;background-origin:padding-box;background-clip:border-box;fill:rgb(0, 0, 0);stroke:none;transform:none;opacity:1;background:scroll rgba(0, 0, 0, 0) none  repeat;width:200px;height:200px;;animation:none"><g class="ldl-scale" style="transform-origin:50px 50px;transform:matrix(0.8, 0, 0, 0.8, 0, 0);fill:rgb(0, 0, 0);stroke:none;opacity:1;;animation:none"><g class="ldl-ani" style="fill:rgb(0, 0, 0);stroke:none;transform:none;opacity:1;;animation:none"><g class="ldl-layer" style="fill:rgb(0, 0, 0);stroke:none;transform:none;opacity:1;;animation:none"><g class="ldl-ani" style="transform-box:view-box;transform:matrix(1, 0, 0, 1, 0, 0);opacity:1;animation-name:animate;animation-duration:1s;animation-timing-function:linear;animation-delay:-0.545455s;animation-iteration-count:infinite;animation-direction:normal;animation-fill-mode:forwards;animation-play-state:paused;transform-origin:50px 50px;fill:rgb(0, 0, 0);stroke:none;;animation:none"><path fill="#333" d="M37.7 24.5V12.8c0-1.5-1.2-2.8-2.8-2.8H23.2c-1.5 0-2.8 1.2-2.8 2.8v11.7c0 1.5 1.2 2.8 2.8 2.8h11.7c1.6-.1 2.8-1.3 2.8-2.8z" style="stroke-width:1px;fill:rgb(218, 214, 214);stroke:none;transform:none;opacity:1;;animation:none"></path></g></g>
<g class="ldl-layer" style="fill:rgb(0, 0, 0);stroke:none;transform:none;opacity:1;;animation:none"><g class="ldl-ani" style="transform-box:view-box;transform:matrix(1, 0, 0, 1, 0, 0);opacity:1;animation-name:animate;animation-duration:1s;animation-timing-function:linear;animation-delay:-0.590909s;animation-iteration-count:infinite;animation-direction:normal;animation-fill-mode:forwards;animation-play-state:paused;transform-origin:50px 50px;fill:rgb(0, 0, 0);stroke:none;;animation:none"><path fill="#333" d="M58.6 24.5V12.8c0-1.5-1.2-2.8-2.8-2.8H44.2c-1.5 0-2.8 1.2-2.8 2.8v11.7c0 1.5 1.2 2.8 2.8 2.8h11.7c1.5-.1 2.7-1.3 2.7-2.8z" style="stroke-width:1px;fill:rgb(218, 214, 214);stroke:none;transform:none;opacity:1;;animation:none"></path></g></g>
<g class="ldl-layer" style="fill:rgb(0, 0, 0);stroke:none;transform:none;opacity:1;;animation:none"><g class="ldl-ani" style="transform-box:view-box;transform:matrix(1, 0, 0, 1, 0, 0);opacity:1;animation-name:animate;animation-duration:1s;animation-timing-function:linear;animation-delay:-0.636364s;animation-iteration-count:infinite;animation-direction:normal;animation-fill-mode:forwards;animation-play-state:paused;transform-origin:50px 50px;fill:rgb(0, 0, 0);stroke:none;;animation:none"><path fill="#333" d="M79.5 24.5V12.8c0-1.5-1.2-2.8-2.8-2.8H65.1c-1.5 0-2.8 1.2-2.8 2.8v11.7c0 1.5 1.2 2.8 2.8 2.8h11.7c1.5-.1 2.7-1.3 2.7-2.8z" style="stroke-width:1px;fill:rgb(218, 214, 214);stroke:none;transform:none;opacity:1;;animation:none"></path></g></g>
<g class="ldl-layer" style="fill:rgb(0, 0, 0);stroke:none;transform:none;opacity:1;;animation:none"><g class="ldl-ani" style="transform-box:view-box;transform:matrix(1, 0, 0, 1, 0, 0);opacity:1;animation-name:animate;animation-duration:1s;animation-timing-function:linear;animation-delay:-0.681818s;animation-iteration-count:infinite;animation-direction:normal;animation-fill-mode:forwards;animation-play-state:paused;transform-origin:50px 50px;fill:rgb(0, 0, 0);stroke:none;;animation:none"><path fill="#333" d="M37.7 45.4V33.7c0-1.5-1.2-2.8-2.8-2.8H23.2c-1.5 0-2.8 1.2-2.8 2.8v11.7c0 1.5 1.2 2.8 2.8 2.8h11.7c1.6 0 2.8-1.3 2.8-2.8z" style="stroke-width:1px;fill:rgb(218, 214, 214);stroke:none;transform:none;opacity:1;;animation:none"></path></g></g>
<g class="ldl-layer" style="fill:rgb(0, 0, 0);stroke:none;transform:none;opacity:1;;animation:none"><g class="ldl-ani" style="transform-box:view-box;transform:matrix(1, 0, 0, 1, 0, 0);opacity:1;animation-name:animate;animation-duration:1s;animation-timing-function:linear;animation-delay:-0.727273s;animation-iteration-count:infinite;animation-direction:normal;animation-fill-mode:forwards;animation-play-state:paused;transform-origin:50px 50px;fill:rgb(0, 0, 0);stroke:none;;animation:none"><path fill="#333" d="M58.6 45.4V33.7c0-1.5-1.2-2.8-2.8-2.8H44.2c-1.5 0-2.8 1.2-2.8 2.8v11.7c0 1.5 1.2 2.8 2.8 2.8h11.7c1.5 0 2.7-1.3 2.7-2.8z" style="stroke-width:1px;fill:rgb(218, 214, 214);stroke:none;transform:none;opacity:1;;animation:none"></path></g></g>
<g class="ldl-layer" style="fill:rgb(0, 0, 0);stroke:none;transform:none;opacity:1;;animation:none"><g class="ldl-ani" style="transform-box:view-box;transform:matrix(1, 0, 0, 1, 0, 0);opacity:1;animation-name:animate;animation-duration:1s;animation-timing-function:linear;animation-delay:-0.772727s;animation-iteration-count:infinite;animation-direction:normal;animation-fill-mode:forwards;animation-play-state:paused;transform-origin:50px 50px;fill:rgb(0, 0, 0);stroke:none;;animation:none"><path fill="#333" d="M79.5 45.4V33.7c0-1.5-1.2-2.8-2.8-2.8H65.1c-1.5 0-2.8 1.2-2.8 2.8v11.7c0 1.5 1.2 2.8 2.8 2.8h11.7c1.5 0 2.7-1.3 2.7-2.8z" style="stroke-width:1px;fill:rgb(218, 214, 214);stroke:none;transform:none;opacity:1;;animation:none"></path></g></g>
<g class="ldl-layer" style="fill:rgb(0, 0, 0);stroke:none;transform:none;opacity:1;;animation:none"><g class="ldl-ani" style="transform-box:view-box;transform:matrix(1, 0, 0, 1, 0, 0);opacity:1;animation-name:animate;animation-duration:1s;animation-timing-function:linear;animation-delay:-0.818182s;animation-iteration-count:infinite;animation-direction:normal;animation-fill-mode:forwards;animation-play-state:paused;transform-origin:50px 50px;fill:rgb(0, 0, 0);stroke:none;;animation:none"><path fill="#333" d="M37.7 66.3V54.6c0-1.5-1.2-2.8-2.8-2.8H23.2c-1.5 0-2.8 1.2-2.8 2.8v11.7c0 1.5 1.2 2.8 2.8 2.8h11.7c1.6 0 2.8-1.3 2.8-2.8z" style="stroke-width:1px;fill:rgb(218, 214, 214);stroke:none;transform:none;opacity:1;;animation:none"></path></g></g>
<g class="ldl-layer" style="fill:rgb(0, 0, 0);stroke:none;transform:none;opacity:1;;animation:none"><g class="ldl-ani" style="transform-box:view-box;transform:matrix(1, 0, 0, 1, 0, 0);opacity:1;animation-name:animate;animation-duration:1s;animation-timing-function:linear;animation-delay:-0.863636s;animation-iteration-count:infinite;animation-direction:normal;animation-fill-mode:forwards;animation-play-state:paused;transform-origin:50px 50px;fill:rgb(0, 0, 0);stroke:none;;animation:none"><path fill="#333" d="M58.6 66.3V54.6c0-1.5-1.2-2.8-2.8-2.8H44.2c-1.5 0-2.8 1.2-2.8 2.8v11.7c0 1.5 1.2 2.8 2.8 2.8h11.7c1.5 0 2.7-1.3 2.7-2.8z" style="stroke-width:1px;fill:rgb(218, 214, 214);stroke:none;transform:none;opacity:1;;animation:none"></path></g></g>
<g class="ldl-layer" style="fill:rgb(0, 0, 0);stroke:none;transform:none;opacity:1;;animation:none"><g class="ldl-ani" style="transform-box:view-box;transform:matrix(1, 0, 0, 1, 0, 0);opacity:1;animation-name:animate;animation-duration:1s;animation-timing-function:linear;animation-delay:-0.909091s;animation-iteration-count:infinite;animation-direction:normal;animation-fill-mode:forwards;animation-play-state:paused;transform-origin:50px 50px;fill:rgb(0, 0, 0);stroke:none;;animation:none"><path fill="#333" d="M79.5 66.3V54.6c0-1.5-1.2-2.8-2.8-2.8H65.1c-1.5 0-2.8 1.2-2.8 2.8v11.7c0 1.5 1.2 2.8 2.8 2.8h11.7c1.5 0 2.7-1.3 2.7-2.8z" style="stroke-width:1px;fill:rgb(218, 214, 214);stroke:none;transform:none;opacity:1;;animation:none"></path></g></g>
<g class="ldl-layer" style="fill:rgb(0, 0, 0);stroke:none;transform:none;opacity:1;;animation:none"><g class="ldl-ani" style="transform-box:view-box;transform:matrix(1, 0, 0, 1, 0, 0);opacity:1;animation-name:animate;animation-duration:1s;animation-timing-function:linear;animation-delay:-0.954545s;animation-iteration-count:infinite;animation-direction:normal;animation-fill-mode:forwards;animation-play-state:paused;transform-origin:50px 50px;fill:rgb(0, 0, 0);stroke:none;;animation:none"><path fill="#333" d="M58.6 86.3v-9.8c0-2-1.5-3.7-3.4-3.7H23.9c-1.9 0-3.4 1.7-3.4 3.7v9.8c0 2 1.5 3.7 3.4 3.7h31.4c1.8 0 3.3-1.7 3.3-3.7z" style="stroke-width:1px;fill:rgb(218, 214, 214);stroke:none;transform:none;opacity:1;;animation:none"></path></g></g>
<g class="ldl-layer" style="fill:rgb(0, 0, 0);stroke:none;transform:none;opacity:1;;animation:none"><g class="ldl-ani" style="transform-box:view-box;transform:matrix(1, 0, 0, 1, 0, 0);opacity:1;animation-name:animate;animation-duration:1s;animation-timing-function:linear;animation-delay:-1s;animation-iteration-count:infinite;animation-direction:normal;animation-fill-mode:forwards;animation-play-state:paused;transform-origin:50px 50px;fill:rgb(0, 0, 0);stroke:none;;animation:none"><path fill="#333" d="M79.5 87.2V75.5c0-1.5-1.2-2.8-2.8-2.8H65.1c-1.5 0-2.8 1.2-2.8 2.8v11.7c0 1.5 1.2 2.8 2.8 2.8h11.7c1.5 0 2.7-1.2 2.7-2.8z" style="stroke-width:1px;fill:rgb(218, 214, 214);stroke:none;transform:none;opacity:1;;animation:none"></path></g></g>
<metadata xmlns:d="https://loading.io/stock/" style="fill:rgb(0, 0, 0);stroke:none;transform:none;opacity:1;;animation:none"></metadata></g></g>
<STYLE type="text/css">@keyframes animate { 0.00% {animation-timing-function: cubic-bezier(0.33,0.00,0.67,0.00);transform: translate(0.00px,0.00px) rotate(0.00deg) scale(1.00, 1.00) skew(0deg, 0.00deg) ;opacity: 1.00;}50.00% {animation-timing-function: cubic-bezier(0.33,0.00,0.67,0.00);transform: translate(0.00px,0.00px) rotate(0.00deg) ;}100.00% {animation-timing-function: cubic-bezier(0.33,0.00,0.67,0.00);transform: translate(0.00px,0.00px) rotate(0.00deg) ;} }</STYLE><!-- [ldio] generated by https://loading.io --></svg>